<svg height="512pt" viewBox="-41 0 512 512" width="512pt" xmlns="http://www.w3.org/2000/svg"><path fill="#ffffff" d="m344.59375 210.78125v-195.664062c0-8.347657-6.765625-15.117188-15.117188-15.117188h-53.890624c-8.351563 0-15.121094 6.769531-15.121094 15.117188v195.664062c-30.4375 10.597656-55.691406 32.351562-70.835938 60.351562-6.148437-3.363281-12.601562-6.234374-19.300781-8.566406v-247.449218c0-8.347657-6.769531-15.117188-15.117187-15.117188h-53.894532c-8.347656 0-15.117187 6.769531-15.117187 15.117188v247.449218c-50.125 17.453125-86.199219 65.175782-86.199219 121.171875 0 70.722657 57.539062 128.261719 128.261719 128.261719 48.734375 0 91.199219-27.320312 112.902343-67.445312 18.238282 9.980468 39.152344 15.660156 61.367188 15.660156 70.722656 0 128.261719-57.539063 128.261719-128.261719 0-56-36.070313-103.722656-86.199219-121.171875zm-30.234375-180.546875v133.140625h-23.65625v-133.140625zm0 163.375v50.394531h-23.65625v-50.394531zm-88.503906 199.34375c-13.355469-16.753906-21.351563-37.960937-21.351563-61.003906 0-3.105469.152344-6.179688.4375-9.214844 13.355469 16.753906 21.347656 37.960937 21.347656 61 0 3.109375-.148437 6.183594-.433593 9.21875zm-85.765625-177.796875h-23.65625v-184.921875h23.65625zm-23.65625 30.238281h23.65625v50.394531h-23.65625zm11.828125 236.371094c-54.050781 0-98.027344-43.976563-98.027344-98.027344 0-39.007812 22.902344-72.761719 55.964844-88.53125v15.699219c0 8.347656 6.769531 15.117188 15.117187 15.117188h53.894532c8.347656 0 15.117187-6.769532 15.117187-15.117188v-15.699219c2.769531 1.320313 5.46875 2.769531 8.089844 4.335938-2.707031 10.355469-4.152344 21.21875-4.152344 32.410156 0 37.554687 16.226563 71.390625 42.03125 94.867187-15.972656 32.511719-49.429687 54.945313-88.035156 54.945313zm174.269531-51.785156c-18.316406 0-35.472656-5.054688-50.15625-13.835938 2.707031-10.355469 4.152344-21.214843 4.152344-32.40625 0-37.558593-16.226563-71.394531-42.03125-94.871093 9.746094-19.839844 26.003906-35.921876 45.972656-45.445313v15.699219c0 8.347656 6.765625 15.117187 15.117188 15.117187h53.890624c8.351563 0 15.121094-6.769531 15.121094-15.117187v-15.699219c33.058594 15.769531 55.960938 49.523437 55.960938 88.53125 0 54.050781-43.976563 98.027344-98.027344 98.027344zm0 0"/></svg>