<?xml version="1.0" encoding="iso-8859-1"?>
<!-- Generator: Adobe Illustrator 16.0.0, SVG Export Plug-In . SVG Version: 6.00 Build 0)  -->
<!DOCTYPE svg PUBLIC "-//W3C//DTD SVG 1.1//EN" "http://www.w3.org/Graphics/SVG/1.1/DTD/svg11.dtd">
<svg version="1.1" id="Capa_1" xmlns="http://www.w3.org/2000/svg" xmlns:xlink="http://www.w3.org/1999/xlink" x="0px" y="0px"
	 width="428.046px" height="428.046px" viewBox="0 0 428.046 428.046" style="enable-background:new 0 0 428.046 428.046;"
	 xml:space="preserve">
<g>
	<path fill="#ffffff" d="M402.027,116.532h-63.536h-68.923v-0.012v-0.43c0-0.693-0.097-1.384-0.181-2.054c9.428-11.997,15.145-27.042,15.145-43.447
		C284.532,31.667,252.85,0,213.939,0c-38.917,0-70.583,31.667-70.583,70.59c0,16.393,5.698,31.402,15.102,43.405
		c-0.057,0.505-0.144,0.994-0.144,1.511v1.021v0.015H89.553H26.01c-5.468,1.222-9.617,6.074-9.617,12.058
		c0.018,6.917,5.446,12.511,12.169,12.511h5.987H55.83h88.694h13.778v0.087v129.871H95.621c-19.333,0-35.068,15.673-35.158,34.984
		v86.829c0,19.39,15.778,35.164,35.17,35.164c19.393,0,35.179-15.769,35.179-35.164v-51.461h27.502h24.659h30.967h30.973h24.662
		h28.865v51.461c0,19.39,15.792,35.164,35.182,35.164c19.401,0,35.164-15.769,35.164-35.164v-86.637
		c0-19.396-15.763-35.183-35.164-35.183h-64.053V141.191v-0.087h13.942h88.703h21.281h5.98c6.726,0,12.166-5.593,12.178-12.511
		C411.641,122.609,407.498,117.757,402.027,116.532z"/>
</g>
<g>
</g>
<g>
</g>
<g>
</g>
<g>
</g>
<g>
</g>
<g>
</g>
<g>
</g>
<g>
</g>
<g>
</g>
<g>
</g>
<g>
</g>
<g>
</g>
<g>
</g>
<g>
</g>
<g>
</g>
</svg>
